<svg width="455" height="512" xmlns="http://www.w3.org/2000/svg" xml:space="preserve" version="1.1">

 <g>
  <title>Layer 1</title>
  <g id="svg_1" transform="matrix(1 0 0 1 227.99 256.5)">
   <path id="svg_2" fill-rule=" nonzero" fill=" rgb(255,255,255)" stroke-miterlimit="4" stroke-linejoin=" miter" stroke-dashoffset="0" stroke-dasharray=" none" stroke=" none" stroke-linecap=" butt" d="m107.73197,-11.3363l14.18549,0l-1.84405,17.3363l-14.13617,0l1.79473,-17.3363zm119.75837,-97.25605l0,217.18476c-0.48163,13.71582 -7.45301,25.97717 -19.70099,34.12341l-188.08826,108.59161c-10.83478,6.25672 -28.56714,6.25672 -39.40185,0l-188.08832,-108.59161c-11.41535,-7.48413 -18.85797,-19.55206 -19.70093,-34.12341l0,-217.18476c0,-12.51196 8.86462,-27.86828 19.70093,-34.12353l188.08832,-108.59162c10.83471,-6.25665 28.56707,-6.25665 39.40185,0l188.08826,108.59162c11.3772,7.68078 19.26098,20.9588 19.70099,34.12353zm-96.1496,184.46473l-65.63464,-37.97889c-43.78241,70.08545 -140.47565,35.83631 -141.53601,-37.89282c3.53076,-79.99829 101.91009,-103.43078 141.53161,-37.89715l65.63458,-37.98041c-85.53711,-137.60144 -283.88739,-72.21118 -282.99621,75.87756c3.80169,159.65241 207.61761,206.7348 283.00067,75.87171zm15.66925,-99.28046l-11.25275,0l2.02826,-19.59192l-12.5,0l-2.08398,19.59192l-14.21979,0l2.02826,-19.59192l-12.5,0l-2.08398,19.59192l-11.91602,0l0,12.07178l10.63196,0l-1.84406,17.3363l-12.2879,0l0,12.07178l11.00378,0l-2.27929,21.42822l12.73468,0l2.21838,-21.42822l14.10175,0l-2.2793,21.42822l12.73468,0l2.21838,-21.42822l12.04694,0l0,-12.07178l-10.79724,0l1.79474,-17.3363l12.5025,0l0,-12.07178z"/>
  </g>
 </g>
</svg>